<svg xmlns="http://www.w3.org/2000/svg" xmlns:xlink="http://www.w3.org/1999/xlink" width="35" height="25.663" viewBox="0 0 35 25.663">
  <defs>
    <linearGradient id="linear-gradient" x1="0.141" y1="0.137" x2="0.905" y2="1" gradientUnits="objectBoundingBox">
      <stop offset="0" stop-color="#84e"/>
      <stop offset="1" stop-color="#b07dfb"/>
    </linearGradient>
  </defs>
  <path id="favicon" d="M23.7,35.52a7.56,7.56,0,0,1-6.52-3.4A12.64,12.64,0,0,1,9,35.52c-5.46,0-8.42-3.85-7.42-9.37C2.34,22,5.74,17.84,6.69,14.5c-1.84-1.12-4.57-1.9-5.85.39L0,14.38c.67-2.51,2.29-4.18,4.63-4.18s4.07,1.39,6.3.11h1.78c-.95,5-3.35,9-4.63,16-.78,4.29.67,6.24,3.12,6.24a7.4,7.4,0,0,0,4.68-2.51,20.28,20.28,0,0,1-1.45-7.69c0-6.08,2.79-12.49,7.47-12.49,2.4,0,4.18,1.67,4.18,5.63s-2.4,10.09-5.46,13.94a4,4,0,0,0,3.9,3.29c4.46,0,7.58-6.69,7.58-12.88s-2.68-5.91-2.45-8A2,2,0,0,1,31.78,10C33.17,10,35,11.76,35,18.9,35,28,30.16,35.52,23.7,35.52ZM22.69,13c-1.39,0-2.73,5.13-2.9,10.43a22.73,22.73,0,0,0,.06,3.4A26.68,26.68,0,0,0,23.59,15.4C23.58,13.6,23.25,13,22.69,13Z" transform="translate(0 -9.86)" fill="url(#linear-gradient)"/>
</svg>
